#!OML:ASF I:\Random Stuff\random\construction\7_22_03\Session 2\subj1.ASF
:FULLY-SPECIFIED
:DEGREES
530
root -9.28953 17.7325 2.12372 5.45524 64.3478 -3.90223
lowerback 3.23384 0.316034 2.69043
upperback -2.19367 0.664322 2.17744
thorax -4.07433 0.297914 0.693186
lowerneck -25.2399 1.77352 1.36947
upperneck 30.9142 1.75115 1.52363
head 15.0025 1.24353 0.780834
rclavicle -6.10269e-014 -1.59028e-015
rhumerus -39.712 -18.3271 -62.2143
rradius 21.7585
rwrist 12.1055
rhand -18.5924 17.5786
rfingers 7.12502
rthumb 7.69854 -12.2612
lclavicle -6.10269e-014 -1.59028e-015
lhumerus -39.5146 4.64111 78.3978
lradius 26.7075
lwrist 32.9179
lhand -17.4118 62.7185
lfingers 7.12502
lthumb -171.162 87.4865
rfemur -10.5581 8.90846 22.4601
rtibia 14.0424
rfoot -10.4445 -16.5863
rtoes -9.76505
lfemur -15.3714 -23.4695 -8.18028
ltibia 19.0528
lfoot -14.732 16.1288
ltoes -35.331
531
root -9.30234 17.7385 2.06236 5.08731 64.6399 -4.43875
lowerback 3.01517 0.319686 2.82474
upperback -2.23933 0.669928 2.19881
thorax -3.99686 0.298403 0.640934
lowerneck -25.2185 1.64822 1.26396
upperneck 30.9044 1.62692 1.48928
head 14.9926 1.17362 0.759315
rclavicle 1.10822e-014 -3.02153e-014
rhumerus -40.4365 -20.5955 -60.4159
rradius 20.5625
rwrist 13.9761
rhand -18.8521 17.0012
rfingers 7.12502
rthumb 7.4479 -12.8477
lclavicle 1.10822e-014 -3.02153e-014
lhumerus -38.7882 5.02364 78.0486
lradius 25.6422
lwrist 31.5074
lhand -17.7845 63.2245
lfingers 7.12502
lthumb -171.522 86.9657
rfemur -10.5739 9.79001 22.4237
rtibia 13.6688
rfoot -10.1525 -17.616
rtoes -8.83729
lfemur -15.9684 -23.4461 -7.9253
ltibia 19.3815
lfoot -14.6979 15.7424
ltoes -35.7471
532
root -9.3081 17.7431 1.99737 4.79958 64.844 -4.87535
lowerback 2.76558 0.343976 2.9479
upperback -2.27222 0.699712 2.21502
thorax -3.88839 0.31154 0.588333
lowerneck -25.1361 1.56183 1.2481
upperneck 30.8399 1.57071 1.31852
head 14.9466 1.12211 0.677598
rclavicle 6.27663e-014 -6.36111e-015
rhumerus -41.1589 -22.7908 -58.5643
rradius 19.3054
rwrist 16.0745
rhand -19.1055 16.4538
rfingers 7.12502
rthumb 7.20329 -13.4036
lclavicle 6.27663e-014 -6.36111e-015
lhumerus -37.9703 5.49719 77.791
lradius 24.6301
lwrist 30.1025
lhand -18.4246 63.5612
lfingers 7.12502
lthumb -172.139 86.605
rfemur -10.5874 10.3529 22.3301
rtibia 13.3311
rfoot -10.0261 -18.2843
rtoes -8.36725
lfemur -16.4744 -23.4944 -7.78649
ltibia 19.6895
lfoot -14.6015 15.638
ltoes -36.2936
533
root -9.31066 17.7453 1.93113 4.53087 64.908 -5.2596
lowerback 2.54752 0.435448 3.0402
upperback -2.29424 0.817907 2.22562
thorax -3.78556 0.369454 0.542183
lowerneck -25.0789 1.45419 1.15266
upperneck 30.7609 1.49494 1.20672
head 14.898 1.06135 0.630368
rclavicle 4.32357e-015 2.3059e-014
rhumerus -41.8219 -24.7956 -56.7853
rradius 17.9819
rwrist 18.2156
rhand -19.4931 16.242
rfingers 7.12502
rthumb 6.82912 -13.6278
lclavicle 4.32357e-015 2.3059e-014
lhumerus -37.0009 6.12076 77.5843
lradius 23.5641
lwrist 28.3655
lhand -19.1801 63.659
lfingers 7.12502
lthumb -172.869 86.4812
rfemur -10.6286 10.995 22.2069
rtibia 13.1147
rfoot -9.90914 -19.0174
rtoes -8.49772
lfemur -16.8355 -23.4615 -7.74106
ltibia 19.9272
lfoot -14.4397 15.6421
ltoes -36.3222
534
root -9.31059 17.7453 1.86421 4.29336 64.8148 -5.53753
lowerback 2.431 0.59575 3.12361
upperback -2.31254 1.02958 2.18859
thorax -3.73397 0.472637 0.446508
lowerneck -25.1066 1.3547 1.02294
upperneck 30.7896 1.41128 1.19398
head 14.9158 1.00921 0.63146
rclavicle -3.926e-015 1.90833e-014
rhumerus -42.4887 -26.615 -55.1185
rradius 16.7029
rwrist 20.331
rhand -19.2747 16.6267
rfingers 7.12502
rthumb 7.03998 -13.2362
lclavicle -3.926e-015 1.90833e-014
lhumerus -35.9696 6.6431 77.495
lradius 22.5119
lwrist 26.5826
lhand -19.9261 63.6594
lfingers 7.12502
lthumb -173.589 86.4577
rfemur -10.6454 11.6802 22.0482
rtibia 12.9608
rfoot -9.66295 -19.7101
rtoes -9.13194
lfemur -17.0389 -23.6554 -7.77839
ltibia 20.1321
lfoot -14.263 15.9715
ltoes -36.1361
535
root -9.3073 17.7439 1.7992 4.12746 64.6794 -5.65326
lowerback 2.35643 0.75049 3.15539
upperback -2.3132 1.23118 2.12358
thorax -3.68736 0.571542 0.351645
lowerneck -25.126 1.30662 0.988361
upperneck 30.8903 1.38145 1.13603
head 14.966 0.98559 0.609365
rclavicle 2.38045e-014 -1.51076e-014
rhumerus -43.0657 -28.1838 -53.5946
rradius 15.4576
rwrist 22.4408
rhand -17.9965 17.6348
rfingers 7.12502
rthumb 8.27369 -12.1832
lclavicle 2.38045e-014 -1.51076e-014
lhumerus -34.9451 7.00536 77.5816
lradius 21.5601
lwrist 24.927
lhand -20.4459 63.8212
lfingers 7.12502
lthumb -174.091 86.2812
rfemur -10.5807 12.1739 21.8531
rtibia 12.8092
rfoot -9.37545 -20.1703
rtoes -9.79404
lfemur -17.1377 -23.997 -7.91664
ltibia 20.3488
lfoot -14.2519 16.4452
ltoes -35.8655
536
root -9.30401 17.7434 1.73851 3.89229 64.5739 -5.81251
lowerback 2.25832 0.88351 3.20109
upperback -2.27579 1.40097 2.04923
thorax -3.58731 0.654874 0.242274
lowerneck -25.0917 1.28715 1.04109
upperneck 30.9448 1.36145 1.0633
head 14.9847 0.974238 0.56687
rclavicle -2.98674e-014 -1.82882e-014
rhumerus -43.7117 -30.3301 -51.6332
rradius 14.0871
rwrist 25.7869
rhand -17.3839 17.7659
rfingers 7.12502
rthumb 8.8649 -12.0279
lclavicle -2.98674e-014 -1.82882e-014
lhumerus -33.9525 7.18471 77.8253
lradius 20.9299
lwrist 23.4301
lhand -20.7755 64.159
lfingers 7.12502
lthumb -174.409 85.9348
rfemur -10.4933 12.7639 21.6929
rtibia 12.7094
rfoot -9.12336 -20.7391
rtoes -10.076
lfemur -17.1882 -24.1288 -8.06853
ltibia 20.5572
lfoot -14.3289 16.6651
ltoes -35.4771
537
root -9.29958 17.7426 1.68216 3.67015 64.4788 -5.93262
lowerback 2.13257 1.01454 3.22517
upperback -2.19662 1.56298 1.95355
thorax -3.42772 0.735493 0.12506
lowerneck -25.1314 1.25901 1.08415
upperneck 31.0095 1.32073 1.01726
head 15.0239 0.956555 0.533743
rclavicle 7.17613e-014 -2.98177e-014
rhumerus -44.7095 -33.4043 -48.9202
rradius 12.7925
rwrist 30.6803
rhand -17.3598 17.3887
rfingers 7.12502
rthumb 8.8882 -12.4041
lclavicle 7.17613e-014 -2.98177e-014
lhumerus -32.9839 7.02355 78.3208
lradius 20.6635
lwrist 22.326
lhand -21.0027 64.3698
lfingers 7.12502
lthumb -174.628 85.7182
rfemur -10.4064 13.6626 21.514
rtibia 12.6949
rfoot -8.85508 -21.6204
rtoes -10.6178
lfemur -17.1687 -24.1245 -8.2544
ltibia 20.7225
lfoot -14.3694 16.6503
ltoes -35.3902
538
root -9.2922 17.7395 1.62864 3.65775 64.3424 -5.84234
lowerback 1.94487 1.15046 3.14968
upperback -2.12123 1.7244 1.83818
thorax -3.23851 0.818395 0.0455995
lowerneck -25.0427 1.19701 1.06569
upperneck 30.9542 1.24969 0.991214
head 14.9793 0.920773 0.510402
rclavicle -2.37548e-014 1.15295e-014
rhumerus -45.5734 -35.7118 -46.9315
rradius 12.112
rwrist 34.6063
rhand -16.3596 17.8354
rfingers 7.12502
rthumb 9.85325 -11.9141
lclavicle -2.37548e-014 1.15295e-014
lhumerus -32.0569 6.5897 79.0447
lradius 20.6266
lwrist 21.5946
lhand -21.2156 64.1685
lfingers 7.12502
lthumb -174.834 85.9144
rfemur -10.3645 13.7662 21.3009
rtibia 12.7578
rfoot -8.79411 -21.7091
rtoes -11.4201
lfemur -17.1251 -24.0557 -8.51686
ltibia 20.8334
lfoot -14.4476 16.5615
ltoes -35.4809
539
root -9.28561 17.7366 1.57644 3.88319 64.1856 -5.58327
lowerback 1.68632 1.26602 2.99528
upperback -2.07434 1.85431 1.70777
thorax -3.04122 0.887183 -0.00121934
lowerneck -24.8696 1.19963 1.09473
upperneck 30.7993 1.25871 0.947939
head 14.8716 0.920908 0.485595
rclavicle 1.45113e-014 7.95139e-016
rhumerus -45.4807 -36.204 -47.0115
rradius 12.0377
rwrist 36.3861
rhand -15.3138 18.0978
rfingers 7.12502
rthumb 10.8621 -11.6013
lclavicle 1.45113e-014 7.95139e-016
lhumerus -31.3158 5.84773 79.9331
lradius 21.0437
lwrist 21.3705
lhand -21.3329 64.0288
lfingers 7.12502
lthumb -174.947 86.0514
rfemur -10.4898 13.8808 20.9913
rtibia 12.9187
rfoot -8.73376 -21.8004
rtoes -12.0973
lfemur -17.1563 -23.8514 -8.81429
ltibia 20.8803
lfoot -14.4697 16.419
ltoes -35.3051
540
root -9.27909 17.7366 1.52603 4.19351 64.0471 -5.24194
lowerback 1.45119 1.33786 2.80831
upperback -2.0594 1.92861 1.57515
thorax -2.89251 0.928081 -0.0298113
lowerneck -24.7849 1.26153 1.18994
upperneck 30.8093 1.35806 0.825376
head 14.8595 0.957006 0.43767
rclavicle -3.33958e-014 -3.18055e-015
rhumerus -44.2845 -34.8266 -49.1946
rradius 12.3673
rwrist 35.9239
rhand -14.7931 17.4784
rfingers 7.12502
rthumb 11.3643 -12.1937
lclavicle -3.33958e-014 -3.18055e-015
lhumerus -30.9198 4.55544 81.0632
lradius 22.0309
lwrist 22.1247
lhand -21.7188 64.3072
lfingers 7.12502
lthumb -175.32 85.7645
rfemur -10.642 13.9674 20.6514
rtibia 13.1387
rfoot -8.74433 -21.8912
rtoes -12.7476
lfemur -17.1816 -23.5687 -9.15375
ltibia 20.8895
lfoot -14.5446 16.1799
ltoes -34.8896
541
root -9.26951 17.7394 1.47759 4.45669 63.9067 -4.95465
lowerback 1.24017 1.38041 2.67369
upperback -2.09367 1.9701 1.45424
thorax -2.8079 0.950754 -0.0751278
lowerneck -24.7199 1.28217 1.18441
upperneck 31.037 1.41401 0.797701
head 14.9491 0.98011 0.44109
rclavicle -4.89507e-014 -1.55052e-014
rhumerus -42.722 -32.4604 -52.2337
rradius 13.0323
rwrist 33.9982
rhand -14.5494 16.6827
rfingers 7.12502
rthumb 11.5993 -12.9763
lclavicle -4.89507e-014 -1.55052e-014
lhumerus -30.7894 3.05895 82.3003
lradius 23.4001
lwrist 23.3737
lhand -22.0271 64.5152
lfingers 7.12502
lthumb -175.617 85.5502
rfemur -10.7491 14.0547 20.3312
rtibia 13.2996
rfoot -8.83121 -21.9501
rtoes -13.0585
lfemur -17.2034 -23.1059 -9.50637
ltibia 20.9275
lfoot -14.6483 15.7539
ltoes -34.6365
542
root -9.25746 17.7414 1.42992 4.6506 63.8174 -4.74705
lowerback 1.01765 1.39885 2.63386
upperback -2.12014 1.98186 1.32786
thorax -2.70621 0.956782 -0.177248
lowerneck -24.7542 1.30021 1.15714
upperneck 31.3679 1.4568 0.823888
head 15.1078 1.00377 0.470561
rclavicle 6.16232e-015 -2.54444e-014
rhumerus -41.2256 -29.9387 -55.3286
rradius 13.9578
rwrist 31.4055
rhand -14.8999 15.9044
rfingers 7.12502
rthumb 11.2613 -13.7733
lclavicle 6.16232e-015 -2.54444e-014
lhumerus -30.6658 1.83493 83.4069
lradius 24.9332
lwrist 24.1654
lhand -21.2477 63.9936
lfingers 7.12502
lthumb -174.865 86.0886
rfemur -10.7999 14.0931 20.0375
rtibia 13.3623
rfoot -8.96503 -21.9506
rtoes -13.0204
lfemur -17.2671 -22.4644 -9.85159
ltibia 21.0177
lfoot -14.6574 15.1335
ltoes -34.5008
543
root -9.24728 17.7414 1.38144 4.61632 63.778 -4.73871
lowerback 0.871628 1.39967 2.70605
upperback -2.13291 1.97612 1.21849
thorax -2.63102 0.951755 -0.325662
lowerneck -24.7152 1.31813 1.14855
upperneck 31.5456 1.49854 0.820744
head 15.1812 1.02301 0.481555
rclavicle 5.1858e-014 1.90833e-014
rhumerus -39.7362 -26.8117 -58.7487
rradius 15.1711
rwrist 27.5
rhand -14.9667 16.6869
rfingers 7.12502
rthumb 11.1969 -12.9943
lclavicle 5.1858e-014 1.90833e-014
lhumerus -30.6524 0.224788 84.705
lradius 26.7541
lwrist 25.993
lhand -21.3849 63.8976
lfingers 7.12502
lthumb -174.997 86.1815
rfemur -10.7664 14.0907 19.8573
rtibia 13.3641
rfoot -9.12466 -21.9189
rtoes -12.9629
lfemur -17.3223 -21.96 -10.0927
ltibia 21.1426
lfoot -14.7032 14.6045
ltoes -34.5265
544
root -9.2389 17.7421 1.33416 4.53551 63.7023 -4.77168
lowerback 0.780184 1.37971 2.75329
upperback -2.16687 1.94616 1.14975
thorax -2.61137 0.935029 -0.41965
lowerneck -24.6354 1.37649 1.18359
upperneck 31.7682 1.5787 0.834468
head 15.2672 1.06737 0.500318
rclavicle 3.57067e-014 -7.15625e-015
rhumerus -38.4076 -23.1832 -62.2022
rradius 16.7434
rwrist 22.8177
rhand -14.9728 16.9444
rfingers 7.12502
rthumb 11.191 -12.7371
lclavicle 3.57067e-014 -7.15625e-015
lhumerus -30.8054 -1.45732 86.0282
lradius 28.7064
lwrist 28.0118
lhand -21.2994 63.3988
lfingers 7.12502
lthumb -174.915 86.6823
rfemur -10.7119 14.1316 19.7038
rtibia 13.3322
rfoot -9.33211 -21.8566
rtoes -12.7099
lfemur -17.3659 -21.5436 -10.2948
ltibia 21.281
lfoot -14.6842 14.2173
ltoes -34.3777
